<svg version="1.2" xmlns="http://www.w3.org/2000/svg" viewBox="0 0 31 31" width="32" height="32">
	<title>search-svg</title>
	<style>
		.s0 { fill: #ffffff } 
	</style>
	<path id="search" fill-rule="evenodd" class="s0" d="m28.8 30.4l-8.5-8.5c-5.1 4.2-12.6 3.7-17.1-1.2-4.4-4.9-4.2-12.4 0.4-17.1 4.7-4.6 12.2-4.8 17.1-0.4 4.9 4.5 5.4 12 1.2 17.1l8.5 8.5zm-25.8-14.1c0.5 1.2 1.3 2.3 2.2 3.3 1 0.9 2.1 1.7 3.3 2.2 1.2 0.5 2.6 0.7 3.9 0.7 4.1 0 7.8-2.4 9.3-6.2 1.6-3.8 0.7-8.2-2.2-11-2.9-2.9-7.2-3.8-11-2.2-3.8 1.5-6.2 5.2-6.2 9.3 0 1.3 0.2 2.7 0.7 3.9z"/>
</svg>